<svg width="166" height="273" viewBox="0 0 166 273" fill="none" xmlns="http://www.w3.org/2000/svg">
<g filter="url(#filter0_d_240_2987)">
<path d="M69.2 58.4H158.2V76.4H88.4V120.8H153.4V138.8H88.4V200H69.2V58.4Z" fill="white"/>
<path d="M26.72 95.02C19.22 95.02 13.58 88.96 13.58 81.28C13.58 73.6 19.22 67.54 26.72 67.54C34.22 67.54 39.86 73.6 39.86 81.28C39.86 88.96 34.22 95.02 26.72 95.02ZM26.72 103.66C39.62 103.66 49.4 93.94 49.4 81.28C49.4 68.62 39.62 58.9 26.72 58.9C13.82 58.9 4.04 68.62 4.04 81.28C4.04 93.94 13.82 103.66 26.72 103.66Z" fill="white"/>
</g>
<defs>
<filter id="filter0_d_240_2987" x="0.0400391" y="58.3999" width="162.16" height="149.6" filterUnits="userSpaceOnUse" color-interpolation-filters="sRGB">
<feFlood flood-opacity="0" result="BackgroundImageFix"/>
<feColorMatrix in="SourceAlpha" type="matrix" values="0 0 0 0 0 0 0 0 0 0 0 0 0 0 0 0 0 0 127 0" result="hardAlpha"/>
<feOffset dy="4"/>
<feGaussianBlur stdDeviation="2"/>
<feComposite in2="hardAlpha" operator="out"/>
<feColorMatrix type="matrix" values="0 0 0 0 0 0 0 0 0 0 0 0 0 0 0 0 0 0 0.25 0"/>
<feBlend mode="normal" in2="BackgroundImageFix" result="effect1_dropShadow_240_2987"/>
<feBlend mode="normal" in="SourceGraphic" in2="effect1_dropShadow_240_2987" result="shape"/>
</filter>
</defs>
</svg>
